<?xml version="1.0" standalone="no"?><!DOCTYPE svg PUBLIC "-//W3C//DTD SVG 1.1//EN" "http://www.w3.org/Graphics/SVG/1.1/DTD/svg11.dtd"><svg t="1775886829399" class="icon" viewBox="0 0 1024 1024" version="1.1" xmlns="http://www.w3.org/2000/svg" p-id="1038" xmlns:xlink="http://www.w3.org/1999/xlink" width="256" height="256"><path d="M921.62048 397.6192h-819.0976c-0.256 3.74784-0.58368 6.27712-0.58368 8.79616-0.03072 116.5824-0.06144 233.17504 0.07168 349.76768 0.01024 6.47168 0.52224 13.1584 2.18112 19.38432 10.5472 39.71072 39.46496 60.18048 84.82816 60.19072 216.05376 0.04096 432.10752 0.0512 648.16128-0.1024a109.75232 109.75232 0 0 0 25.86624-2.89792c36.9664-9.10336 59.4944-38.07232 59.61728-78.24384 0.36864-116.224 0.13312-232.448 0.08192-348.672-0.01024-2.72384-0.72704-5.45792-1.1264-8.22272zM363.76576 674.44736c-0.21504 2.34496-5.59104 5.9392-8.66304 6.01088-21.08416 0.53248-42.1888 0.28672-63.2832 0.28672-36.74112 0-73.48224-0.256-110.21312 0.18432-8.8064 0.1024-11.56096-2.82624-10.99776-11.27424 0.60416-8.97024 0.13312-18.01216 0.13312-27.72992h193.42336c0.02048 11.59168 0.55296 22.12864-0.39936 32.52224z m158.50496-116.1216h-13.19936c-108.21632 0-216.43264-0.17408-324.63872 0.256-11.1616 0.04096-15.07328-2.9696-13.84448-14.03904 0.8704-7.86432 0.16384-15.91296 0.16384-25.10848h351.51872v38.89152zM920.1152 335.64672H102.07232c1.2288-28.5184-5.30432-57.23136 4.97664-84.39808 11.59168-30.62784 35.55328-46.78656 68.1472-49.88928 4.34176-0.4096 8.72448-0.512 13.09696-0.512 215.32672-0.02048 430.66368-0.04096 645.9904 0 27.33056 0 51.80416 7.09632 69.40672 29.76768 9.53344 12.27776 16.32256 25.8048 16.41472 41.80992 0.09216 20.6848 0.01024 41.37984 0.01024 63.22176z" p-id="1039"></path></svg>